<svg width="26" height="25" viewBox="0 0 26 25" fill="none" xmlns="http://www.w3.org/2000/svg">
<path d="M1.56255 2.34376C1.40161 2.34376 1.24536 2.35626 1.09067 2.3797C1.39039 1.67374 1.8913 1.07164 2.53093 0.648457C3.17057 0.225277 3.92062 -0.000248563 4.68757 2.05582e-07H18.7501C19.7861 2.05582e-07 20.7797 0.411552 21.5123 1.14412C22.2449 1.87669 22.6564 2.87026 22.6564 3.90627V10.3126C22.157 10.057 21.6336 9.85135 21.0939 9.69849V3.90627C21.0939 3.28467 20.847 2.68852 20.4074 2.24898C19.9679 1.80944 19.3717 1.56251 18.7501 1.56251H4.68757C3.886 1.56251 3.17818 1.96564 2.75474 2.57814C2.37658 2.42253 1.97148 2.34289 1.56255 2.34376Z" fill="#A4A4A4"/>
<path d="M10.4795 20.3126C10.6342 20.8579 10.8389 21.3798 11.0936 21.8751H4.68733C3.65132 21.8751 2.65775 21.4636 1.92518 20.731C1.19261 19.9984 0.781057 19.0049 0.781057 17.9689V8.49536C1.29353 8.6274 1.8311 8.6274 2.34357 8.49536V17.9689C2.34357 18.5905 2.5905 19.1866 3.03004 19.6261C3.46958 20.0657 4.06572 20.3126 4.68733 20.3126H10.4795Z" fill="#A4A4A4"/>
<path d="M11.0937 14.0628C11.3797 13.5034 11.725 12.9799 12.1203 12.5002H7.81246C7.60526 12.5002 7.40655 12.5826 7.26003 12.7291C7.11352 12.8756 7.03121 13.0743 7.03121 13.2815C7.03121 13.4887 7.11352 13.6874 7.26003 13.8339C7.40655 13.9804 7.60526 14.0628 7.81246 14.0628H11.0937Z" fill="#A4A4A4"/>
<path d="M1.56251 3.90601C1.14811 3.90601 0.750675 4.07063 0.457648 4.36365C0.164621 4.65668 0 5.05411 0 5.46851C0 5.88292 0.164621 6.28035 0.457648 6.57337C0.750675 6.8664 1.14811 7.03102 1.56251 7.03102C1.97691 7.03102 2.37434 6.8664 2.66737 6.57337C2.9604 6.28035 3.12502 5.88292 3.12502 5.46851C3.12502 5.05411 2.9604 4.65668 2.66737 4.36365C2.37434 4.07063 1.97691 3.90601 1.56251 3.90601Z" fill="#A4A4A4"/>
<path d="M7.81246 7.81226C7.60526 7.81226 7.40655 7.89457 7.26003 8.04108C7.11352 8.18759 7.03121 8.38631 7.03121 8.59351C7.03121 8.80071 7.11352 8.99943 7.26003 9.14594C7.40655 9.29245 7.60526 9.37476 7.81246 9.37476H15.625C15.8322 9.37476 16.0309 9.29245 16.1774 9.14594C16.324 8.99943 16.4063 8.80071 16.4063 8.59351C16.4063 8.38631 16.324 8.18759 16.1774 8.04108C16.0309 7.89457 15.8322 7.81226 15.625 7.81226H7.81246Z" fill="#A4A4A4"/>
<path d="M25.7814 17.9688C25.7814 19.8336 25.0406 21.622 23.722 22.9407C22.4033 24.2593 20.6149 25.0001 18.7501 25.0001C16.8853 25.0001 15.0968 24.2593 13.7782 22.9407C12.4596 21.622 11.7188 19.8336 11.7188 17.9688C11.7188 16.104 12.4596 14.3155 13.7782 12.9969C15.0968 11.6783 16.8853 10.9375 18.7501 10.9375C20.6149 10.9375 22.4033 11.6783 23.722 12.9969C25.0406 14.3155 25.7814 16.104 25.7814 17.9688ZM19.5314 14.8438C19.5314 14.6366 19.449 14.4379 19.3025 14.2913C19.156 14.1448 18.9573 14.0625 18.7501 14.0625C18.5429 14.0625 18.3442 14.1448 18.1977 14.2913C18.0512 14.4379 17.9688 14.6366 17.9688 14.8438V17.1875H15.6251C15.4179 17.1875 15.2192 17.2698 15.0726 17.4164C14.9261 17.5629 14.8438 17.7616 14.8438 17.9688C14.8438 18.176 14.9261 18.3747 15.0726 18.5212C15.2192 18.6677 15.4179 18.75 15.6251 18.75H17.9688V21.0938C17.9688 21.301 18.0512 21.4997 18.1977 21.6462C18.3442 21.7927 18.5429 21.8751 18.7501 21.8751C18.9573 21.8751 19.156 21.7927 19.3025 21.6462C19.449 21.4997 19.5314 21.301 19.5314 21.0938V18.75H21.8751C22.0823 18.75 22.281 18.6677 22.4275 18.5212C22.5741 18.3747 22.6564 18.176 22.6564 17.9688C22.6564 17.7616 22.5741 17.5629 22.4275 17.4164C22.281 17.2698 22.0823 17.1875 21.8751 17.1875H19.5314V14.8438Z" fill="#A4A4A4"/>
</svg>
