<svg width="22" height="25" viewBox="0 0 22 25" fill="none" xmlns="http://www.w3.org/2000/svg">
<path d="M4.68749 17.1875C4.68749 16.7731 4.85211 16.3757 5.14514 16.0826C5.43816 15.7896 5.83559 15.625 6.24999 15.625C6.66439 15.625 7.06182 15.7896 7.35485 16.0826C7.64787 16.3757 7.81249 16.7731 7.81249 17.1875V18.75C7.81249 19.1644 7.64787 19.5618 7.35485 19.8549C7.06182 20.1479 6.66439 20.3125 6.24999 20.3125C5.83559 20.3125 5.43816 20.1479 5.14514 19.8549C4.85211 19.5618 4.68749 19.1644 4.68749 18.75V17.1875ZM14.0625 10.9375C14.0625 10.5231 14.2271 10.1257 14.5201 9.83265C14.8132 9.53962 15.2106 9.375 15.625 9.375C16.0394 9.375 16.4368 9.53962 16.7298 9.83265C17.0229 10.1257 17.1875 10.5231 17.1875 10.9375V18.75C17.1875 19.1644 17.0229 19.5618 16.7298 19.8549C16.4368 20.1479 16.0394 20.3125 15.625 20.3125C15.2106 20.3125 14.8132 20.1479 14.5201 19.8549C14.2271 19.5618 14.0625 19.1644 14.0625 18.75V10.9375ZM9.37499 14.0625C9.37499 13.6481 9.53961 13.2507 9.83264 12.9576C10.1257 12.6646 10.5231 12.5 10.9375 12.5C11.3519 12.5 11.7493 12.6646 12.0423 12.9576C12.3354 13.2507 12.5 13.6481 12.5 14.0625V18.75C12.5 19.1644 12.3354 19.5618 12.0423 19.8549C11.7493 20.1479 11.3519 20.3125 10.9375 20.3125C10.5231 20.3125 10.1257 20.1479 9.83264 19.8549C9.53961 19.5618 9.37499 19.1644 9.37499 18.75V14.0625Z" fill="#A4A4A4"/>
<path d="M4.6875 2.34375H3.125C2.2962 2.34375 1.50134 2.67299 0.915291 3.25904C0.32924 3.84509 0 4.63995 0 5.46875V21.875C0 22.7038 0.32924 23.4987 0.915291 24.0847C1.50134 24.6708 2.2962 25 3.125 25H18.75C19.5788 25 20.3737 24.6708 20.9597 24.0847C21.5458 23.4987 21.875 22.7038 21.875 21.875V5.46875C21.875 4.63995 21.5458 3.84509 20.9597 3.25904C20.3737 2.67299 19.5788 2.34375 18.75 2.34375H17.1875V3.90625H18.75C19.1644 3.90625 19.5618 4.07087 19.8549 4.3639C20.1479 4.65692 20.3125 5.05435 20.3125 5.46875V21.875C20.3125 22.2894 20.1479 22.6868 19.8549 22.9799C19.5618 23.2729 19.1644 23.4375 18.75 23.4375H3.125C2.7106 23.4375 2.31317 23.2729 2.02015 22.9799C1.72712 22.6868 1.5625 22.2894 1.5625 21.875V5.46875C1.5625 5.05435 1.72712 4.65692 2.02015 4.3639C2.31317 4.07087 2.7106 3.90625 3.125 3.90625H4.6875V2.34375Z" fill="#A4A4A4"/>
<path d="M13.2813 1.5625C13.4885 1.5625 13.6872 1.64481 13.8337 1.79132C13.9802 1.93784 14.0625 2.13655 14.0625 2.34375V3.90625C14.0625 4.11345 13.9802 4.31216 13.8337 4.45868C13.6872 4.60519 13.4885 4.6875 13.2813 4.6875H8.59376C8.38656 4.6875 8.18784 4.60519 8.04133 4.45868C7.89482 4.31216 7.81251 4.11345 7.81251 3.90625V2.34375C7.81251 2.13655 7.89482 1.93784 8.04133 1.79132C8.18784 1.64481 8.38656 1.5625 8.59376 1.5625H13.2813ZM8.59376 0C7.97216 0 7.37601 0.24693 6.93648 0.686468C6.49694 1.12601 6.25001 1.72215 6.25001 2.34375V3.90625C6.25001 4.52785 6.49694 5.12399 6.93648 5.56353C7.37601 6.00307 7.97216 6.25 8.59376 6.25H13.2813C13.9029 6.25 14.499 6.00307 14.9385 5.56353C15.3781 5.12399 15.625 4.52785 15.625 3.90625V2.34375C15.625 1.72215 15.3781 1.12601 14.9385 0.686468C14.499 0.24693 13.9029 0 13.2813 0L8.59376 0Z" fill="#A4A4A4"/>
</svg>
