<svg width="56" height="40" viewBox="0 0 56 40" fill="none" xmlns="http://www.w3.org/2000/svg">
<path d="M45.8182 17.5C45.8182 7.825 37.8509 0 28 0C24.0987 0.00190683 20.3061 1.26312 17.2061 3.5895C14.1061 5.91588 11.8706 9.17846 10.8436 12.875C7.76212 13.5708 5.01193 15.2723 3.04235 17.7017C1.07278 20.131 0.000252973 23.1446 0 26.25C0 33.85 6.26182 40 14 40H44.5455C50.8836 39.975 56 34.925 56 28.7C56 22.875 51.5455 18.15 45.8182 17.5ZM30.5455 22.5V30C30.5455 31.375 29.4 32.5 28 32.5C26.6 32.5 25.4545 31.375 25.4545 30V22.5H20.8982C19.7527 22.5 19.1927 21.15 20.0073 20.375L27.1091 13.4C27.6182 12.9 28.4073 12.9 28.9164 13.4L36.0182 20.375C36.1926 20.5497 36.311 20.7709 36.3586 21.011C36.4063 21.2512 36.3811 21.4998 36.2863 21.7261C36.1914 21.9523 36.031 22.1462 35.825 22.2838C35.619 22.4214 35.3764 22.4966 35.1273 22.5H30.5455Z" fill="url(#paint0_linear)"/>
<defs>
<linearGradient id="paint0_linear" x1="0" y1="0" x2="56" y2="40" gradientUnits="userSpaceOnUse">
<stop stop-color="#8EDC8F"/>
<stop offset="1" stop-color="#3FBFB2"/>
</linearGradient>
</defs>
</svg>
